<svg width="11" height="13" viewBox="0 0 11 13" xmlns="http://www.w3.org/2000/svg" xmlns:xlink="http://www.w3.org/1999/xlink"><g id="Финансирование-проекта" stroke="none" stroke-width="1" fill="none" fill-rule="evenodd"><g id="7_fin" transform="translate(-684 -908)" fill="#DE5A5A" fill-rule="nonzero"><path d="M688.496 908c-.82 0-1.496.675-1.496 1.496V910h-3v1h1v8.5c0 .823.677 1.5 1.5 1.5h6c.823 0 1.5-.677 1.5-1.5V911h1v-1h-3v-.504c0-.82-.675-1.496-1.496-1.496h-2.008zm0 1h2.008c.281 0 .496.215.496.496V911h2v8.5c0 .281-.219.5-.5.5h-6a.493.493 0 01-.5-.5V911h2v-1.504c0-.281.215-.496.496-.496zM687 912v7h1v-7h-1zm2 0v7h1v-7h-1zm2 0v7h1v-7h-1z" id="Shape-Copy-4"/></g></g></svg>