<svg width="13" height="13" viewBox="0 0 13 13" xmlns="http://www.w3.org/2000/svg" xmlns:xlink="http://www.w3.org/1999/xlink"><g id="Финансирование-проекта" stroke="none" stroke-width="1" fill="none" fill-rule="evenodd"><g id="3_fin" transform="translate(-851 -979)" fill="#4174D7" fill-rule="nonzero"><path d="M853 979v1h-.5c-.824 0-1.5.676-1.5 1.5v9c0 .824.676 1.5 1.5 1.5h10c.824 0 1.5-.676 1.5-1.5v-9c0-.824-.676-1.5-1.5-1.5h-.5v-1h-1v1h-7v-1h-1zm-.5 2h.5v1h1v-1h7v1h1v-1h.5c.281 0 .5.219.5.5v1.5h-11v-1.5c0-.281.219-.5.5-.5zm-.5 3h11v6.5c0 .281-.219.5-.5.5h-10a.494.494 0 01-.5-.5V984z" id="Shape-Copy-3"/></g></g></svg>