<svg width="12" height="13" viewBox="0 0 12 13" xmlns="http://www.w3.org/2000/svg" xmlns:xlink="http://www.w3.org/1999/xlink"><g id="Page-1" stroke="none" stroke-width="1" fill="none" fill-rule="evenodd"><path d="M6 0a3.998 3.998 0 00-3.79 2.719l.95.312c.012-.031.024-.062.035-.097V2.93A3.005 3.005 0 016 1c1.664 0 3 1.336 3 3v1H1.5C.676 5 0 5.676 0 6.5v5c0 .824.676 1.5 1.5 1.5h9c.824 0 1.5-.676 1.5-1.5v-5c0-.824-.676-1.5-1.5-1.5H10V4c0-2.203-1.797-4-4-4zM1.5 6h9c.281 0 .5.219.5.5v5c0 .281-.219.5-.5.5h-9a.494.494 0 01-.5-.5v-5c0-.281.219-.5.5-.5z" id="Shape" fill="#000" fill-rule="nonzero"/></g></svg>