<svg width="102" height="19" viewBox="0 0 102 19" xmlns="http://www.w3.org/2000/svg" xmlns:xlink="http://www.w3.org/1999/xlink"><g id="Page-1" stroke="none" stroke-width="1" fill="none" fill-rule="evenodd"><g id="Group-5"><path d="M32.367 15.523h-4.921V3.353h4.92c2.012 0 3.652.574 4.922 1.704 1.27 1.13 1.905 2.59 1.905 4.38 0 1.792-.635 3.27-1.905 4.4-1.27 1.13-2.91 1.686-4.921 1.686zM30.62 6.1v6.676h1.517c2.399 0 3.774-1.2 3.774-3.338 0-2.139-1.375-3.338-3.774-3.338H30.62zm14.87 9.649c-1.394 0-2.576-.417-3.546-1.252-.97-.852-1.447-1.982-1.447-3.39 0-1.304.441-2.417 1.306-3.303.864-.887 2.01-1.339 3.44-1.339 1.27 0 2.31.435 3.104 1.304.811.852 1.217 1.964 1.217 3.32v.766h-5.997c.264.92 1.323 1.373 2.61 1.373.97 0 1.94-.26 2.875-.765v2.364c-.846.609-2.028.922-3.563.922zm-1.94-5.529h2.963c-.017-.886-.652-1.495-1.41-1.495-.83 0-1.43.574-1.553 1.495zm10.213 5.529c-.97 0-1.764-.278-2.364-.817-.6-.54-.9-1.252-.9-2.121.018-2 1.853-2.904 3.493-2.852.9 0 1.658.157 2.276.453v-.122c0-.626-.265-1.043-.741-1.2-.441-.156-.794-.208-1.34-.208-.936 0-1.818.208-2.611.643V7.108c.935-.434 2.063-.643 3.369-.643 1.323 0 2.381.33 3.192.974.812.643 1.217 1.495 1.217 2.59v2.677c0 .313.177.47.53.47.211 0 .388-.035.511-.104v2.19c-.388.296-.917.452-1.587.452-1.041 0-1.782-.33-2.188-1.008-.723.695-1.675 1.043-2.857 1.043zm1.058-2.069c.635 0 1.112-.26 1.447-.765v-.921c-.353-.261-.794-.383-1.306-.383-.776 0-1.393.417-1.393 1.06 0 .627.547 1.009 1.252 1.009zm9.56 2.069c.706 0 1.288-.104 1.73-.33v-2.417a1.078 1.078 0 01-.53.122c-.423 0-.635-.226-.635-.678V3.353h-3.122v9.823c0 1.721.847 2.573 2.558 2.573zm8.15-.226h-4.357V3.353h4.357c1.993 0 3.598.574 4.85 1.704 1.253 1.13 1.888 2.59 1.888 4.38 0 1.792-.635 3.27-1.888 4.4-1.252 1.13-2.857 1.686-4.85 1.686zM70.114 5.109v8.658h2.24c1.535 0 2.752-.383 3.616-1.165.865-.782 1.306-1.825 1.306-3.164 0-1.339-.441-2.382-1.306-3.164-.864-.783-2.081-1.165-3.616-1.165h-2.24zm10.99 6.137c0-1.27.405-2.347 1.234-3.199.829-.852 1.887-1.286 3.21-1.286.882 0 1.64.226 2.276.695 1.287.904 1.834 2.312 1.834 3.86v.486h-6.632c.23 1.443 1.5 2.295 3.263 2.295 1.006 0 1.923-.26 2.787-.765v1.582c-.794.557-1.852.835-3.193.835-1.34 0-2.469-.417-3.404-1.252-.917-.834-1.376-1.912-1.376-3.251zm1.94-.87h4.692c-.018-.52-.212-.99-.618-1.408-.406-.417-.952-.625-1.658-.625-1.393 0-2.293.921-2.416 2.034zm13.758-3.615c1.217 0 2.222.434 3.016 1.303.794.87 1.182 1.93 1.182 3.2 0 1.251-.388 2.312-1.182 3.181-.794.87-1.799 1.304-3.016 1.304-1.34 0-2.364-.47-3.087-1.391V19H91.81V6.987h1.905V8.15c.723-.921 1.746-1.39 3.087-1.39zm-.512 1.651a2.934 2.934 0 00-2.575 1.53v2.643a2.989 2.989 0 002.575 1.512c.794 0 1.464-.278 1.994-.817.529-.556.793-1.234.793-2.017 0-.8-.264-1.477-.793-2.016-.53-.557-1.2-.835-1.994-.835z" id="DealDep" fill="#373737"/><g id="Group"><path d="M5.182 16.988H0V4.471h5.182c2.02 0 3.653.59 4.936 1.752 1.282 1.162 1.914 2.665 1.914 4.506 0 1.842-.632 3.344-1.914 4.507-1.283 1.162-2.916 1.752-4.936 1.752z" id="D" fill="#C25FBD"/><path d="M9.573 12.518H4.391V0h5.182c2.02 0 3.654.59 4.936 1.752 1.282 1.163 1.914 2.665 1.914 4.507 0 1.842-.632 3.344-1.914 4.506-1.282 1.163-2.916 1.753-4.936 1.753z" id="D-Copy" fill="#4174D7"/></g></g></g></svg>