<svg width="44" height="44" viewBox="0 0 44 44" xmlns="http://www.w3.org/2000/svg" xmlns:xlink="http://www.w3.org/1999/xlink"><g id="Финансирование-проекта" stroke="none" stroke-width="1" fill="none" fill-rule="evenodd"><g id="4_fin" transform="translate(-855 -376)" fill="#A1D17B" fill-rule="nonzero"><path d="M877 376c-12.137 0-22 9.863-22 22s9.863 22 22 22 22-9.863 22-22-9.863-22-22-22zm0 2c11.059 0 20 8.941 20 20s-8.941 20-20 20-20-8.941-20-20 8.941-20 20-20zm9.063 9.469l-10.938 17-7.344-6.625-1.343 1.5 8.187 7.406.875.781.625-1 11.625-18-1.688-1.062z" id="Shape"/></g></g></svg>