<svg width="13" height="13" viewBox="0 0 13 13" xmlns="http://www.w3.org/2000/svg" xmlns:xlink="http://www.w3.org/1999/xlink"><g id="Финансирование-проекта" stroke="none" stroke-width="1" fill="none" fill-rule="evenodd"><g id="3_fin" transform="translate(-493 -717)" fill="#4174D7" fill-rule="nonzero"><path d="M499.5 717a6.508 6.508 0 00-6.5 6.5c0 3.584 2.916 6.5 6.5 6.5s6.5-2.916 6.5-6.5-2.916-6.5-6.5-6.5zm0 1c3.043 0 5.5 2.457 5.5 5.5s-2.457 5.5-5.5 5.5a5.492 5.492 0 01-5.5-5.5c0-3.043 2.457-5.5 5.5-5.5zm-.5 3v2h-2v1h2v2h1v-2h2v-1h-2v-2h-1z" id="Shape-Copy"/></g></g></svg>