<svg class="planning__tipImage js-tip-image" width="17" height="17" viewBox="0 0 17 17" xmlns="http://www.w3.org/2000/svg" xmlns:xlink="http://www.w3.org/1999/xlink"><circle stroke="#4174D7" fill="#00f" cx="8.5" cy="8.5" r="8"/><path fill="#4174D7" d="M8.195 5.003A2.333 2.333 0 006 7.319h1c0-.812.703-1.445 1.559-1.297.617.106 1.097.707 1.082 1.336-.02.559-.34.91-.82 1.117-.294.133-.575.258-.813.508S7.64 9.604 7.64 10h1c0-.223.027-.258.09-.324.062-.067.222-.16.496-.282.746-.328 1.382-1.039 1.414-2.003.03-1.137-.782-2.16-1.914-2.356a2.442 2.442 0 00-.532-.031zm-.554 5.996v1h1v-1h-1z" id="Shape" fill-rule="nonzero"/></svg>