<?xml version="1.0" encoding="UTF-8"?><svg width="13" height="13" xmlns="http://www.w3.org/2000/svg" viewBox="0 0 13 13"><path d="M10.137.067c-.5 0-1.002.19-1.38.569l-.003.001-7.345 7.466-1.322 3.963 3.964-1.322.082-.08L11.518 3.4v-.003c.759-.758.759-2.003 0-2.761-.38-.38-.88-.569-1.38-.569zm0 .97c.25 0 .498.096.691.289a.97.97 0 010 1.381l-.771.76a2.49 2.49 0 00-.551-.82 2.46 2.46 0 00-.82-.549l.764-.774a.975.975 0 01.687-.286zM8.042 2.927c.181.016.442.082.773.413.33.33.4.592.416.772.013.136-.005.155-.013.178L4.173 9.255a2.515 2.515 0 00-.526-.748 2.515 2.515 0 00-.749-.526l4.964-5.043c.024-.008.045-.023.18-.012zM2.227 8.791c.151.013.393.071.729.407.335.336.394.577.406.729.001.015-.002.005-.002.018l-.93.311a3.009 3.009 0 00-.248-.284 2.97 2.97 0 00-.285-.246l.312-.932c.013 0 .002-.004.018-.003z" fill="#000" fill-rule="nonzero"/></svg>