<?xml version="1.0" encoding="UTF-8"?><svg viewBox="0 0 102 44" xmlns="http://www.w3.org/2000/svg" xmlns:xlink="http://www.w3.org/1999/xlink"><style>:root>svg{display:none}:root>svg:target{display:block}</style><svg viewBox="0 0 11 13" id="basket_red" xmlns="http://www.w3.org/2000/svg"><path d="M4.496 0C3.676 0 3 .675 3 1.496V2H0v1h1v8.5c0 .823.677 1.5 1.5 1.5h6c.823 0 1.5-.677 1.5-1.5V3h1V2H8v-.504C8 .676 7.325 0 6.504 0H4.496zm0 1h2.008c.281 0 .496.215.496.496V3h2v8.5c0 .281-.219.5-.5.5h-6a.493.493 0 01-.5-.5V3h2V1.496C4 1.215 4.215 1 4.496 1zM3 4v7h1V4H3zm2 0v7h1V4H5zm2 0v7h1V4H7z" fill="#DE5A5A" fill-rule="nonzero"/></svg><svg viewBox="0 0 13 13" id="calendar_blue" xmlns="http://www.w3.org/2000/svg"><path d="M2 0v1h-.5C.676 1 0 1.676 0 2.5v9c0 .824.676 1.5 1.5 1.5h10c.824 0 1.5-.676 1.5-1.5v-9c0-.824-.676-1.5-1.5-1.5H11V0h-1v1H3V0H2zm-.5 2H2v1h1V2h7v1h1V2h.5c.281 0 .5.219.5.5V4H1V2.5c0-.281.219-.5.5-.5zM1 5h11v6.5c0 .281-.219.5-.5.5h-10a.494.494 0 01-.5-.5V5z" fill="#4174D7" fill-rule="nonzero"/></svg><svg viewBox="0 0 12 13" id="lock_black" xmlns="http://www.w3.org/2000/svg"><path d="M6 0a3.998 3.998 0 00-3.79 2.719l.95.312c.012-.031.024-.062.035-.097V2.93A3.005 3.005 0 016 1c1.664 0 3 1.336 3 3v1H1.5C.676 5 0 5.676 0 6.5v5c0 .824.676 1.5 1.5 1.5h9c.824 0 1.5-.676 1.5-1.5v-5c0-.824-.676-1.5-1.5-1.5H10V4c0-2.203-1.797-4-4-4zM1.5 6h9c.281 0 .5.219.5.5v5c0 .281-.219.5-.5.5h-9a.494.494 0 01-.5-.5v-5c0-.281.219-.5.5-.5z" fill="#000" fill-rule="nonzero"/></svg><svg viewBox="0 0 12 13" id="lock_blue" xmlns="http://www.w3.org/2000/svg"><path d="M6 0a3.998 3.998 0 00-3.79 2.719l.95.312c.012-.031.024-.062.035-.097V2.93A3.005 3.005 0 016 1c1.664 0 3 1.336 3 3v1H1.5C.676 5 0 5.676 0 6.5v5c0 .824.676 1.5 1.5 1.5h9c.824 0 1.5-.676 1.5-1.5v-5c0-.824-.676-1.5-1.5-1.5H10V4c0-2.203-1.797-4-4-4zM1.5 6h9c.281 0 .5.219.5.5v5c0 .281-.219.5-.5.5h-9a.494.494 0 01-.5-.5v-5c0-.281.219-.5.5-.5z" fill="#4072D4" fill-rule="nonzero"/></svg><svg viewBox="0 0 12 13" id="lock_white_closed" xmlns="http://www.w3.org/2000/svg"><path d="M6 0C3.797 0 2 1.797 2 4v1h-.5C.676 5 0 5.676 0 6.5v5c0 .824.676 1.5 1.5 1.5h9c.824 0 1.5-.676 1.5-1.5v-5c0-.824-.676-1.5-1.5-1.5H10V4c0-2.203-1.797-4-4-4zm0 1c1.664 0 3 1.336 3 3v1H3V4c0-1.664 1.336-3 3-3zM1.5 6h9c.281 0 .5.219.5.5v5c0 .281-.219.5-.5.5h-9a.494.494 0 01-.5-.5v-5c0-.281.219-.5.5-.5z" fill="#FFF" fill-rule="nonzero"/></svg><svg viewBox="0 0 102 19" id="logo" xmlns="http://www.w3.org/2000/svg"><g fill="none" fill-rule="evenodd"><path d="M32.367 15.523h-4.921V3.353h4.92c2.012 0 3.652.574 4.922 1.704 1.27 1.13 1.905 2.59 1.905 4.38 0 1.792-.635 3.27-1.905 4.4-1.27 1.13-2.91 1.686-4.921 1.686zM30.62 6.1v6.676h1.517c2.399 0 3.774-1.2 3.774-3.338 0-2.139-1.375-3.338-3.774-3.338H30.62zm14.87 9.649c-1.394 0-2.576-.417-3.546-1.252-.97-.852-1.447-1.982-1.447-3.39 0-1.304.441-2.417 1.306-3.303.864-.887 2.01-1.339 3.44-1.339 1.27 0 2.31.435 3.104 1.304.811.852 1.217 1.964 1.217 3.32v.766h-5.997c.264.92 1.323 1.373 2.61 1.373.97 0 1.94-.26 2.875-.765v2.364c-.846.609-2.028.922-3.563.922zM43.55 10.22h2.963c-.017-.886-.652-1.495-1.41-1.495-.83 0-1.43.574-1.553 1.495zm10.213 5.529c-.97 0-1.764-.278-2.364-.817-.6-.54-.9-1.252-.9-2.121.018-2 1.853-2.904 3.493-2.852.9 0 1.658.157 2.276.453v-.122c0-.626-.265-1.043-.741-1.2-.441-.156-.794-.208-1.34-.208-.936 0-1.818.208-2.611.643V7.108c.935-.434 2.063-.643 3.369-.643 1.323 0 2.381.33 3.192.974.812.643 1.217 1.495 1.217 2.59v2.677c0 .313.177.47.53.47.211 0 .388-.035.511-.104v2.19c-.388.296-.917.452-1.587.452-1.041 0-1.782-.33-2.188-1.008-.723.695-1.675 1.043-2.857 1.043zm1.058-2.069c.635 0 1.112-.26 1.447-.765v-.921c-.353-.261-.794-.383-1.306-.383-.776 0-1.393.417-1.393 1.06 0 .627.547 1.009 1.252 1.009zm9.56 2.069c.706 0 1.288-.104 1.73-.33v-2.417a1.078 1.078 0 01-.53.122c-.423 0-.635-.226-.635-.678V3.353h-3.122v9.823c0 1.721.847 2.573 2.558 2.573zm8.15-.226h-4.357V3.353h4.357c1.993 0 3.598.574 4.85 1.704 1.253 1.13 1.888 2.59 1.888 4.38 0 1.792-.635 3.27-1.888 4.4-1.252 1.13-2.857 1.686-4.85 1.686zM70.114 5.109v8.658h2.24c1.535 0 2.752-.383 3.616-1.165.865-.782 1.306-1.825 1.306-3.164 0-1.339-.441-2.382-1.306-3.164-.864-.783-2.081-1.165-3.616-1.165h-2.24zm10.99 6.137c0-1.27.405-2.347 1.234-3.199.829-.852 1.887-1.286 3.21-1.286.882 0 1.64.226 2.276.695 1.287.904 1.834 2.312 1.834 3.86v.486h-6.632c.23 1.443 1.5 2.295 3.263 2.295 1.006 0 1.923-.26 2.787-.765v1.582c-.794.557-1.852.835-3.193.835-1.34 0-2.469-.417-3.404-1.252-.917-.834-1.376-1.912-1.376-3.251zm1.94-.87h4.692c-.018-.52-.212-.99-.618-1.408-.406-.417-.952-.625-1.658-.625-1.393 0-2.293.921-2.416 2.034zm13.758-3.615c1.217 0 2.222.434 3.016 1.303.794.87 1.182 1.93 1.182 3.2 0 1.251-.388 2.312-1.182 3.181-.794.87-1.799 1.304-3.016 1.304-1.34 0-2.364-.47-3.087-1.391V19H91.81V6.987h1.905V8.15c.723-.921 1.746-1.39 3.087-1.39zm-.512 1.651a2.934 2.934 0 00-2.575 1.53v2.643a2.989 2.989 0 002.575 1.512c.794 0 1.464-.278 1.994-.817.529-.556.793-1.234.793-2.017 0-.8-.264-1.477-.793-2.016-.53-.557-1.2-.835-1.994-.835z" fill="#373737"/><path d="M5.182 16.988H0V4.471h5.182c2.02 0 3.653.59 4.936 1.752 1.282 1.162 1.914 2.665 1.914 4.506 0 1.842-.632 3.344-1.914 4.507-1.283 1.162-2.916 1.752-4.936 1.752z" fill="#C25FBD"/><path d="M9.573 12.518H4.391V0h5.182c2.02 0 3.654.59 4.936 1.752 1.282 1.163 1.914 2.665 1.914 4.507 0 1.842-.632 3.344-1.914 4.506-1.282 1.163-2.916 1.753-4.936 1.753z" fill="#4174D7"/></g></svg><svg viewBox="0 0 13 12" id="mark" xmlns="http://www.w3.org/2000/svg"><path d="M1 6.279L4.525 10 12 1" stroke="#fff" stroke-width="2" fill="none" fill-rule="evenodd"/></svg><svg viewBox="0 0 44 44" id="ok_green" xmlns="http://www.w3.org/2000/svg"><path d="M22 0C9.863 0 0 9.863 0 22s9.863 22 22 22 22-9.863 22-22S34.137 0 22 0zm0 2c11.059 0 20 8.941 20 20s-8.941 20-20 20S2 33.059 2 22 10.941 2 22 2zm9.063 9.469l-10.938 17-7.344-6.625-1.344 1.5 8.188 7.406.875.781.625-1 11.625-18-1.688-1.062z" fill="#A1D17B" fill-rule="nonzero"/></svg><svg viewBox="0 0 13 13" id="pencil" xmlns="http://www.w3.org/2000/svg"><path d="M10.137.067c-.5 0-1.002.19-1.38.569l-.003.001-7.345 7.466-1.322 3.963 3.964-1.322.082-.08L11.518 3.4v-.003c.759-.758.759-2.003 0-2.761-.38-.38-.88-.569-1.38-.569zm0 .97c.25 0 .498.096.691.289a.97.97 0 010 1.381l-.771.76a2.49 2.49 0 00-.551-.82 2.46 2.46 0 00-.82-.549l.764-.774a.975.975 0 01.687-.286zM8.042 2.927c.181.016.442.082.773.413.33.33.4.592.416.772.013.136-.005.155-.013.178L4.173 9.255a2.515 2.515 0 00-.526-.748 2.515 2.515 0 00-.749-.526l4.964-5.043c.024-.008.045-.023.18-.012zM2.227 8.791c.151.013.393.071.729.407.335.336.394.577.406.729.001.015-.002.005-.002.018l-.93.311a3.009 3.009 0 00-.248-.284 2.97 2.97 0 00-.285-.246l.312-.932c.013 0 .002-.004.018-.003z" fill="#000" fill-rule="nonzero"/></svg><svg viewBox="0 0 13 13" id="plus_blue" xmlns="http://www.w3.org/2000/svg"><path d="M6.5 0A6.508 6.508 0 000 6.5C0 10.084 2.916 13 6.5 13S13 10.084 13 6.5 10.084 0 6.5 0zm0 1C9.543 1 12 3.457 12 6.5S9.543 12 6.5 12A5.492 5.492 0 011 6.5C1 3.457 3.457 1 6.5 1zM6 4v2H4v1h2v2h1V7h2V6H7V4H6z" fill="#4174D7" fill-rule="nonzero"/></svg><svg viewBox="0 0 4 4" id="point" xmlns="http://www.w3.org/2000/svg"><defs><style>.kcls-1{fill:#4174d7}</style></defs><g id="kСлой_2" data-name="Слой 2"><circle class="kcls-1" cx="2" cy="2" r="2" id="kСлой_1-2" data-name="Слой 1"/></g></svg><svg class="lplanning__tipImage ljs-tip-image" viewBox="0 0 17 17" id="question" xmlns="http://www.w3.org/2000/svg"><g><circle stroke="#4174D7" fill="#00f" cx="8.5" cy="8.5" r="8"/><path fill="#4174D7" d="M8.195 5.003A2.333 2.333 0 006 7.319h1c0-.812.703-1.445 1.559-1.297.617.106 1.097.707 1.082 1.336-.02.559-.34.91-.82 1.117-.294.133-.575.258-.813.508S7.64 9.604 7.64 10h1c0-.223.027-.258.09-.324.062-.067.222-.16.496-.282.746-.328 1.382-1.039 1.414-2.003.03-1.137-.782-2.16-1.914-2.356a2.442 2.442 0 00-.532-.031zm-.554 5.996v1h1v-1h-1z"/></g></svg><svg viewBox="0 0 10 6" id="triangle" xmlns="http://www.w3.org/2000/svg"><defs><style>.mcls-1{fill:#4174d7}</style></defs><g id="mСлой_2" data-name="Слой 2"><path class="mcls-1" d="M5 6l5-6H0l5 6z" id="mСлой_1-2" data-name="Слой 1"/></g></svg></svg>