<?xml version="1.0" encoding="UTF-8"?>
<svg width="11px" height="13px" viewBox="0 0 11 13" version="1.1" xmlns="http://www.w3.org/2000/svg" xmlns:xlink="http://www.w3.org/1999/xlink">
    <!-- Generator: Sketch 52.5 (67469) - http://www.bohemiancoding.com/sketch -->
    <title>Shape Copy 4</title>
    <desc>Created with Sketch.</desc>
    <g id="Финансирование-проекта" stroke="none" stroke-width="1" fill="none" fill-rule="evenodd">
        <g id="7_fin" transform="translate(-684.000000, -908.000000)" fill="#DE5A5A" fill-rule="nonzero">
            <path d="M688.496094,908 C687.675281,908 687,908.675281 687,909.496094 L687,910 L684.5,910 L684,910 L684,911 L684.5,911 L685,911 L685,919.5 C685,920.322531 685.677469,921 686.5,921 L692.5,921 C693.322531,921 694,920.322531 694,919.5 L694,911 L694.5,911 L695,911 L695,910 L694.5,910 L692,910 L692,909.496094 C692,908.675281 691.324719,908 690.503906,908 L688.496094,908 Z M688.496094,909 L690.503906,909 C690.785094,909 691,909.214906 691,909.496094 L691,911 L693,911 L693,919.5 C693,919.781469 692.781469,920 692.5,920 L686.5,920 C686.218531,920 686,919.781469 686,919.5 L686,911 L688,911 L688,909.496094 C688,909.214906 688.214906,909 688.496094,909 Z M687,912 L687,919 L688,919 L688,912 L687,912 Z M689,912 L689,919 L690,919 L690,912 L689,912 Z M691,912 L691,919 L692,919 L692,912 L691,912 Z" id="Shape-Copy-4"></path>
        </g>
    </g>
</svg>