<?xml version="1.0" encoding="UTF-8"?>
<svg width="13px" height="13px" viewBox="0 0 13 13" version="1.1" xmlns="http://www.w3.org/2000/svg" xmlns:xlink="http://www.w3.org/1999/xlink">
    <!-- Generator: Sketch 52.5 (67469) - http://www.bohemiancoding.com/sketch -->
    <title>Shape Copy 3</title>
    <desc>Created with Sketch.</desc>
    <g id="Финансирование-проекта" stroke="none" stroke-width="1" fill="none" fill-rule="evenodd">
        <g id="3_fin" transform="translate(-851.000000, -979.000000)" fill="#4174D7" fill-rule="nonzero">
            <path d="M853,979 L853,980 L852.5,980 C851.675781,980 851,980.675781 851,981.5 L851,990.5 C851,991.324219 851.675781,992 852.5,992 L862.5,992 C863.324219,992 864,991.324219 864,990.5 L864,981.5 C864,980.675781 863.324219,980 862.5,980 L862,980 L862,979 L861,979 L861,980 L854,980 L854,979 L853,979 Z M852.5,981 L853,981 L853,982 L854,982 L854,981 L861,981 L861,982 L862,982 L862,981 L862.5,981 C862.78125,981 863,981.21875 863,981.5 L863,983 L852,983 L852,981.5 C852,981.21875 852.21875,981 852.5,981 Z M852,984 L863,984 L863,990.5 C863,990.78125 862.78125,991 862.5,991 L852.5,991 C852.21875,991 852,990.78125 852,990.5 L852,984 Z" id="Shape-Copy-3"></path>
        </g>
    </g>
</svg>