<?xml version="1.0" encoding="UTF-8"?>
<svg width="13px" height="13px" viewBox="0 0 13 13" version="1.1" xmlns="http://www.w3.org/2000/svg" xmlns:xlink="http://www.w3.org/1999/xlink">
    <!-- Generator: Sketch 52.5 (67469) - http://www.bohemiancoding.com/sketch -->
    <title>Shape Copy</title>
    <desc>Created with Sketch.</desc>
    <g id="Финансирование-проекта" stroke="none" stroke-width="1" fill="none" fill-rule="evenodd">
        <g id="3_fin" transform="translate(-493.000000, -717.000000)" fill="#4174D7" fill-rule="nonzero">
            <path d="M499.5,717 C495.916071,717 493,719.916071 493,723.5 C493,727.083929 495.916071,730 499.5,730 C503.083929,730 506,727.083929 506,723.5 C506,719.916071 503.083929,717 499.5,717 Z M499.5,718 C502.543488,718 505,720.456512 505,723.5 C505,726.543488 502.543488,729 499.5,729 C496.456512,729 494,726.543488 494,723.5 C494,720.456512 496.456512,718 499.5,718 Z M499,721 L499,721.5 L499,723 L497.5,723 L497,723 L497,724 L497.5,724 L499,724 L499,725.5 L499,726 L500,726 L500,725.5 L500,724 L501.5,724 L502,724 L502,723 L501.5,723 L500,723 L500,721.5 L500,721 L499,721 Z" id="Shape-Copy"></path>
        </g>
    </g>
</svg>